<mxfile host="app.diagrams.net" modified="2022-05-23T08:57:53.510Z" agent="5.0 (Windows)" etag="uRcbOHPjjvQSidxHv7or" version="18.1.1" type="github">
  <diagram name="Page-1" id="8ce9d11a-91a2-4d17-14d8-a56ed91bf033">
    <mxGraphModel dx="1221" dy="644" grid="1" gridSize="10" guides="1" tooltips="1" connect="1" arrows="1" fold="1" page="1" pageScale="1" pageWidth="1100" pageHeight="850" background="none" math="0" shadow="0">
      <root>
        <mxCell id="0" />
        <mxCell id="1" parent="0" />
        <mxCell id="FQi87nIB8K2R2gKA_s0_-4" value="入库" style="rounded=1;whiteSpace=wrap;html=1;verticalAlign=top;" vertex="1" parent="1">
          <mxGeometry x="120" y="210" width="640" height="260" as="geometry" />
        </mxCell>
        <mxCell id="FQi87nIB8K2R2gKA_s0_-14" value="" style="edgeStyle=orthogonalEdgeStyle;rounded=0;orthogonalLoop=1;jettySize=auto;html=1;" edge="1" parent="1" source="FQi87nIB8K2R2gKA_s0_-6" target="FQi87nIB8K2R2gKA_s0_-13">
          <mxGeometry relative="1" as="geometry" />
        </mxCell>
        <mxCell id="FQi87nIB8K2R2gKA_s0_-6" value="将SN码复制到记事本" style="whiteSpace=wrap;html=1;rounded=0;" vertex="1" parent="1">
          <mxGeometry x="290" y="245" width="120" height="60" as="geometry" />
        </mxCell>
        <mxCell id="FQi87nIB8K2R2gKA_s0_-12" value="" style="edgeStyle=orthogonalEdgeStyle;rounded=0;orthogonalLoop=1;jettySize=auto;html=1;fillColor=#d5e8d4;strokeColor=#82b366;" edge="1" parent="1" source="FQi87nIB8K2R2gKA_s0_-8" target="FQi87nIB8K2R2gKA_s0_-6">
          <mxGeometry relative="1" as="geometry" />
        </mxCell>
        <mxCell id="FQi87nIB8K2R2gKA_s0_-8" value="扫码枪扫码" style="whiteSpace=wrap;html=1;rounded=0;" vertex="1" parent="1">
          <mxGeometry x="145" y="245" width="120" height="60" as="geometry" />
        </mxCell>
        <mxCell id="FQi87nIB8K2R2gKA_s0_-16" value="" style="edgeStyle=orthogonalEdgeStyle;rounded=0;orthogonalLoop=1;jettySize=auto;html=1;" edge="1" parent="1" source="FQi87nIB8K2R2gKA_s0_-13" target="FQi87nIB8K2R2gKA_s0_-15">
          <mxGeometry relative="1" as="geometry" />
        </mxCell>
        <mxCell id="FQi87nIB8K2R2gKA_s0_-13" value="在WEB端，批量导入SN码" style="whiteSpace=wrap;html=1;rounded=0;" vertex="1" parent="1">
          <mxGeometry x="440" y="245" width="120" height="60" as="geometry" />
        </mxCell>
        <mxCell id="FQi87nIB8K2R2gKA_s0_-15" value="入库" style="ellipse;whiteSpace=wrap;html=1;rounded=0;" vertex="1" parent="1">
          <mxGeometry x="440" y="370" width="120" height="60" as="geometry" />
        </mxCell>
        <mxCell id="FQi87nIB8K2R2gKA_s0_-17" value="手机扫码入库" style="whiteSpace=wrap;html=1;rounded=0;" vertex="1" parent="1">
          <mxGeometry x="145" y="370" width="120" height="60" as="geometry" />
        </mxCell>
        <mxCell id="FQi87nIB8K2R2gKA_s0_-23" value="" style="endArrow=classic;html=1;rounded=0;exitX=1;exitY=0.5;exitDx=0;exitDy=0;entryX=0;entryY=0.5;entryDx=0;entryDy=0;" edge="1" parent="1" source="FQi87nIB8K2R2gKA_s0_-17" target="FQi87nIB8K2R2gKA_s0_-15">
          <mxGeometry width="50" height="50" relative="1" as="geometry">
            <mxPoint x="520" y="400" as="sourcePoint" />
            <mxPoint x="480" y="360" as="targetPoint" />
            <Array as="points" />
          </mxGeometry>
        </mxCell>
      </root>
    </mxGraphModel>
  </diagram>
</mxfile>
